<?xml version="1.0" encoding="UTF-8"?>
<svg version="1.1" xmlns="http://www.w3.org/2000/svg" width="512" height="512">
<path d="M0 0 C4.50624621 2.67351714 8.21993217 6.4010618 12.015625 9.9765625 C14.7427522 12.50250818 17.54278688 14.85701062 20.4375 17.1875 C24.01328469 20.07348793 27.47901318 23.02944804 30.875 26.125 C34.29239372 29.23958668 37.7802235 32.2168662 41.375 35.125 C45.83776213 38.73532442 50.10219533 42.50927929 54.34375 46.375 C56.9634481 48.70362053 59.6501531 50.92062947 62.375 53.125 C66.83776213 56.73532442 71.10219533 60.50927929 75.34375 64.375 C77.9634481 66.70362053 80.6501531 68.92062947 83.375 71.125 C87.83920457 74.73649134 92.10502114 78.51160694 96.34765625 82.37890625 C98.94462393 84.68687598 101.60904013 86.88055863 104.3125 89.0625 C109.08496203 92.92208603 113.60609109 96.99699991 118.12109375 101.15234375 C121.70707284 104.37209519 125.44201492 107.38405176 129.19140625 110.41015625 C132.67488594 113.28516787 135.9949277 116.32060271 139.328125 119.3671875 C142.02452144 121.75755121 144.80774401 124.00380941 147.625 126.25 C154.09387134 131.50195495 159.98670806 136.5378626 161.24609375 145.16796875 C161.42807311 152.41502906 160.34182225 157.80672268 155.875 163.625 C152.12657107 167.43949218 147.93934077 170.75519735 143.77001953 174.09277344 C140.74741873 176.53671091 137.81539392 179.08332466 134.875 181.625 C133.70879341 182.62553651 132.54212571 183.6255358 131.375 184.625 C130.7975 185.12 130.22 185.615 129.625 186.125 C127.875 187.625 126.125 189.125 124.375 190.625 C123.50862915 191.36762085 123.50862915 191.36762085 122.62475586 192.12524414 C121.45894896 193.12448396 120.29309614 194.12367023 119.12719727 195.12280273 C116.19699602 197.63399461 113.26761709 200.14613393 110.33984375 202.66015625 C104.16840193 207.9577656 97.98098459 213.23515999 91.76708984 218.48291016 C86.03331236 223.32896642 80.33676847 228.21813781 74.64111328 233.10888672 C71.13849055 236.11569999 67.63266627 239.11877971 64.12744141 242.12255859 C61.19718196 244.63385886 58.26770413 247.14605919 55.33984375 249.66015625 C49.16840193 254.9577656 42.98098459 260.23515999 36.76708984 265.48291016 C32.81034038 268.82706339 28.87001824 272.18989537 24.9375 275.5625 C24.36193359 276.05556641 23.78636719 276.54863281 23.19335938 277.05664062 C20.15066061 279.66515272 17.11566542 282.28208059 14.08984375 284.91015625 C13.15676392 285.71755249 13.15676392 285.71755249 12.20483398 286.54125977 C11.02353206 287.5636888 9.84448706 288.58873402 8.66821289 289.61694336 C0.98741751 296.2530131 -4.57080567 299.01989849 -14.828125 298.89453125 C-20.44609236 298.43524245 -24.09044574 296.84248567 -27.90625 292.68359375 C-33.37949469 285.67422613 -34.03397083 279.4326139 -33.125 270.625 C-31.96637137 267.45046148 -30.3410319 265.15680235 -28.125 262.625 C-27.38056641 261.77228516 -27.38056641 261.77228516 -26.62109375 260.90234375 C-22.44238554 256.4819753 -17.67937549 252.75266922 -12.94921875 248.9453125 C-10.26706334 246.74171594 -7.68873579 244.46456175 -5.125 242.125 C-1.80510514 239.10217579 1.57264112 236.19987839 5.0625 233.375 C11.50211993 228.15981485 17.72955403 222.71168248 23.97851562 217.27148438 C26.95355189 214.68862591 29.9444406 212.12443086 32.9375 209.5625 C33.51089111 209.07160889 34.08428223 208.58071777 34.67504883 208.07495117 C35.83030518 207.08614797 36.98565976 206.09745951 38.14111328 205.10888672 C41.05394046 202.61604476 43.96434061 200.12037234 46.875 197.625 C48.04165518 196.6249866 49.20832184 195.62498659 50.375 194.625 C50.9525 194.13 51.53 193.635 52.125 193.125 C92.62109375 158.4140625 92.62109375 158.4140625 94.21826172 157.05175781 C95.41089453 156.02468057 96.59368183 154.98613056 97.77001953 153.94042969 C98.39376465 153.39032227 99.01750977 152.84021484 99.66015625 152.2734375 C100.22742432 151.76731934 100.79469238 151.26120117 101.37915039 150.73974609 C102.875 149.625 102.875 149.625 104.875 149.625 C101.11534086 144.56890667 96.68003283 140.90492584 91.76953125 136.98046875 C89.05512565 134.77157998 86.45781236 132.48536919 83.875 130.125 C80.45760628 127.01041332 76.9697765 124.0331338 73.375 121.125 C68.91223787 117.51467558 64.64780467 113.74072071 60.40625 109.875 C57.7865519 107.54637947 55.0998469 105.32937053 52.375 103.125 C47.91223787 99.51467558 43.64780467 95.74072071 39.40625 91.875 C36.7865519 89.54637947 34.0998469 87.32937053 31.375 85.125 C27.7802235 82.2168662 24.29239372 79.23958668 20.875 76.125 C17.55510514 73.10217579 14.17735888 70.19987839 10.6875 67.375 C5.57996199 63.23861358 0.60519356 58.96755954 -4.34619141 54.64697266 C-7.53811487 51.862667 -10.74110858 49.09553652 -13.984375 46.37109375 C-14.60658936 45.84620361 -15.22880371 45.32131348 -15.86987305 44.78051758 C-17.03678398 43.79792998 -18.20723405 42.81952153 -19.38208008 41.84643555 C-25.49581685 36.68247694 -31.3971833 31.28673691 -32.4609375 23.01171875 C-32.57795895 14.92553688 -30.95621299 9.97775222 -25.75 3.8125 C-18.57192735 -2.16922721 -8.83435738 -3.85134175 0 0 Z " fill="#FFFFFF" transform="translate(192.125,107.375)"/>
</svg>
