<?xml version="1.0" encoding="UTF-8"?>
<svg version="1.1" xmlns="http://www.w3.org/2000/svg" width="256" height="256">
<path d="M0 0 C0.84575592 -0.00570007 1.69151184 -0.01140015 2.56289673 -0.01727295 C4.3498612 -0.02670501 6.13684293 -0.0332498 7.92382812 -0.03710938 C10.64744597 -0.04681578 13.37030908 -0.07785597 16.09375 -0.109375 C17.83332887 -0.11590566 19.57291312 -0.12115588 21.3125 -0.125 C22.12206146 -0.1373468 22.93162292 -0.1496936 23.76571655 -0.16241455 C28.63208179 -0.14338461 32.23555208 0.22606548 36.2890625 3.203125 C37.67639307 5.7475879 38.66684739 7.95136693 39.62890625 10.64453125 C40.22223556 12.13050732 40.81801683 13.61550628 41.41601562 15.09960938 C42.33102404 17.43043935 43.22578786 19.7634858 44.07836914 22.11791992 C46.79478841 29.65553104 46.79478841 29.65553104 51.2890625 36.203125 C55.5121596 38.03748185 59.39472048 38.03937163 63.95645142 38.08480835 C68.47448761 38.31397596 72.87172076 39.33154137 77.296875 40.2265625 C79.29408686 40.6129314 81.29148608 40.9983329 83.2890625 41.3828125 C85.33075605 41.78111223 87.37242265 42.17955009 89.4140625 42.578125 C92.43737502 43.16391005 95.46091835 43.74848712 98.48455811 44.33258057 C100.47564828 44.71853178 102.46625643 45.10697852 104.45635986 45.49798584 C109.39118933 46.46525768 114.32772389 47.39300533 119.28417969 48.24316406 C120.24105682 48.41175934 121.19793396 48.58035461 122.18380737 48.75405884 C123.98630379 49.06999 125.7908919 49.37430092 127.59768677 49.66464233 C133.5794447 50.7283857 137.07986849 52.4173797 140.95141602 57.29931641 C141.43537842 58.04358887 141.91934082 58.78786133 142.41796875 59.5546875 C142.97250732 60.39773437 143.5270459 61.24078125 144.09838867 62.109375 C144.96620972 63.45515625 144.96620972 63.45515625 145.8515625 64.828125 C147.08835529 66.71626793 148.32533805 68.60428643 149.5625 70.4921875 C150.1822168 71.44383789 150.80193359 72.39548828 151.44042969 73.37597656 C154.25136482 77.67479178 157.11529566 81.93772207 159.9765625 86.203125 C161.37435408 88.28712181 162.76943085 90.37082931 164.13427734 92.4765625 C165.36196507 94.36622847 165.36196507 94.36622847 167.24609375 96.640625 C169.95082113 103.28594771 164.58277243 113.503584 162.2890625 119.9453125 C161.89673935 121.05969696 161.5044162 122.17408142 161.10020447 123.32223511 C159.83537115 126.9095201 158.56268637 130.4939525 157.2890625 134.078125 C156.42115642 136.53022073 155.55339939 138.98236923 154.68579102 141.43457031 C150.24860939 153.95821321 145.80152627 166.47903307 141.2265625 178.953125 C140.84048828 180.0138623 140.45441406 181.07459961 140.05664062 182.16748047 C139.70923828 183.10221191 139.36183594 184.03694336 139.00390625 185 C138.57259399 186.16547363 138.57259399 186.16547363 138.13256836 187.35449219 C137.2890625 189.203125 137.2890625 189.203125 135.2890625 191.203125 C126.38720856 192.01059948 117.652683 189.77977591 108.9609375 188.0625 C107.28190291 187.73545572 105.60280428 187.40874002 103.92364502 187.08233643 C100.41926261 186.39884817 96.91627977 185.70865335 93.4140625 185.01416016 C88.93267919 184.12646977 84.44748734 183.2599644 79.96091843 182.39892197 C76.49820345 181.73120376 73.03820368 181.05018535 69.57883453 180.36536407 C67.92597242 180.04023865 66.27219608 179.71972461 64.61751556 179.40398407 C62.30550682 178.96118816 59.99788501 178.50004336 57.69042969 178.03417969 C57.01188934 177.90829971 56.333349 177.78241974 55.63424683 177.65272522 C49.57674389 176.39299693 45.88376091 173.55585018 42.52172852 168.45117188 C42.04095352 167.72941772 41.56017853 167.00766357 41.06483459 166.26403809 C40.56261887 165.49112427 40.06040314 164.71821045 39.54296875 163.921875 C39.00937241 163.11254517 38.47577606 162.30321533 37.92601013 161.46936035 C36.80009731 159.75726926 35.67827684 158.04248081 34.56030273 156.32519531 C32.87089908 153.73279707 31.16608959 151.15107859 29.45898438 148.5703125 C14.28745102 125.50091378 14.28745102 125.50091378 13.2890625 116.203125 C14.06640625 112.9921875 14.06640625 112.9921875 15.2265625 109.828125 C15.60683594 108.76851563 15.98710938 107.70890625 16.37890625 106.6171875 C16.82943359 105.42222656 16.82943359 105.42222656 17.2890625 104.203125 C16.73226807 104.69232422 16.17547363 105.18152344 15.60180664 105.68554688 C8.15909615 110.56931003 -7.30635771 106.72481806 -16.00415039 105.93359375 C-17.77827356 105.77896608 -19.5538098 105.63982724 -21.33032227 105.515625 C-23.92904479 105.33270695 -26.51947917 105.10142438 -29.11328125 104.859375 C-30.29772072 104.79006775 -30.29772072 104.79006775 -31.50608826 104.71936035 C-34.73918776 104.37290902 -36.89984458 104.05091899 -39.19841003 101.64834595 C-40.55774057 99.55885578 -41.65013265 97.45856322 -42.7109375 95.203125 C-43.07713699 94.46298157 -43.44333649 93.72283813 -43.82063293 92.96026611 C-44.97301743 90.56707335 -46.06446957 88.15320849 -47.14453125 85.7265625 C-47.54495132 84.83885162 -47.9453714 83.95114075 -48.35792542 83.03652954 C-49.62684413 80.21945985 -50.88761471 77.39882584 -52.1484375 74.578125 C-52.98973244 72.70940936 -53.83152546 70.84091788 -54.67382812 68.97265625 C-56.29676344 65.36937639 -57.9071424 61.76089916 -59.50732422 58.14746094 C-60.87687749 55.05590951 -62.27550887 51.98226103 -63.71533203 48.92285156 C-64.28814313 47.67515646 -64.86090141 46.42743711 -65.43359375 45.1796875 C-65.92738525 44.13119629 -66.42117676 43.08270508 -66.92993164 42.00244141 C-67.7109375 39.203125 -67.7109375 39.203125 -67.03369141 36.46606445 C-65.09895016 33.15614999 -62.25420645 31.63763344 -59.0234375 29.765625 C-58.33008301 29.34804932 -57.63672852 28.93047363 -56.92236328 28.50024414 C-55.37717526 27.57047821 -53.82845699 26.64656215 -52.27685547 25.72753906 C-48.52459915 23.49832037 -44.79822805 21.22714051 -41.0703125 18.95751953 C-39.0834129 17.74789038 -37.09513278 16.54052588 -35.10546875 15.33544922 C-28.42852877 11.2839838 -21.85227404 7.11121756 -15.35546875 2.77734375 C-10.42772921 -0.15600785 -5.62156614 0.02936416 0 0 Z M-24.4609375 16.390625 C-26.58047749 17.74128045 -28.7002673 19.09154393 -30.8203125 20.44140625 C-32.3372168 21.41327881 -32.3372168 21.41327881 -33.88476562 22.40478516 C-38.44716056 25.30791241 -43.07732487 28.0954049 -47.7109375 30.8828125 C-48.7009375 31.53636719 -48.7009375 31.53636719 -49.7109375 32.203125 C-49.7109375 32.533125 -49.7109375 32.863125 -49.7109375 33.203125 C-32.8610286 34.89049552 -22.64453048 33.11096524 -9.13183594 22.94042969 C-4.8102459 19.83913535 -0.18400972 17.24379298 4.4140625 14.578125 C6.10747922 13.59160185 7.79788599 12.59988256 9.484375 11.6015625 C10.55196045 10.97773682 10.55196045 10.97773682 11.64111328 10.34130859 C13.44643103 9.28989272 13.44643103 9.28989272 14.2890625 7.203125 C11.47700013 6.9513438 8.66676162 6.72637671 5.8515625 6.515625 C4.6769043 6.40637695 4.6769043 6.40637695 3.47851562 6.29492188 C-7.69247152 5.51341249 -15.31405315 10.47094462 -24.4609375 16.390625 Z M23.11328125 9.45703125 C21.88726196 10.23457764 21.88726196 10.23457764 20.63647461 11.02783203 C19.31981812 11.88803955 19.31981812 11.88803955 17.9765625 12.765625 C16.09712828 13.96345506 14.2168892 15.160023 12.3359375 16.35546875 C11.35302734 16.98437012 10.37011719 17.61327148 9.35742188 18.26123047 C3.21779137 22.14686232 -3.02268317 25.86880647 -9.24536133 29.61938477 C-10.16341553 30.17553467 -11.08146973 30.73168457 -12.02734375 31.3046875 C-13.24079468 32.03679443 -13.24079468 32.03679443 -14.47875977 32.78369141 C-16.64388321 34.16048542 -18.68118202 35.63516574 -20.7109375 37.203125 C-20.11080524 40.83178471 -19.11649124 43.79947144 -17.515625 47.10546875 C-16.82315674 48.5440625 -16.82315674 48.5440625 -16.11669922 50.01171875 C-15.35897217 51.56052734 -15.35897217 51.56052734 -14.5859375 53.140625 C-14.06402832 54.21570313 -13.54211914 55.29078125 -13.00439453 56.3984375 C-11.56154921 59.36097854 -10.11201639 62.32010726 -8.65771484 65.27703857 C-7.67234789 67.28163017 -6.68958636 69.28748587 -5.70703125 71.29345703 C-4.00864544 74.75780362 -2.30205216 78.21800026 -0.5894165 81.67532349 C0.07925091 83.02654738 0.74612392 84.37866074 1.41119385 85.73165894 C2.34627329 87.63143558 3.28917653 89.52711693 4.234375 91.421875 C5.04672607 93.0605957 5.04672607 93.0605957 5.87548828 94.73242188 C7.04980339 97.31443609 7.04980339 97.31443609 9.2890625 98.203125 C10.66578125 97.22472656 10.66578125 97.22472656 12.0703125 96.2265625 C12.66126709 95.80689209 13.25222168 95.38722168 13.86108398 94.95483398 C15.156145 94.03007154 16.44728746 93.09979889 17.73461914 92.16430664 C20.36322013 90.25733446 22.92887814 88.40804764 25.75390625 86.80078125 C33.25963472 82.38652114 35.87777598 73.1562836 38.2890625 65.203125 C37.9590625 64.213125 37.6290625 63.223125 37.2890625 62.203125 C36.1753125 62.1 35.0615625 61.996875 33.9140625 61.890625 C32.1196875 61.5503125 32.1196875 61.5503125 30.2890625 61.203125 C27.97623663 57.73388619 27.86427664 56.28106925 28.2890625 52.203125 C29.2890625 50.328125 29.2890625 50.328125 31.2890625 49.203125 C38.31345274 48.4226372 38.31345274 48.4226372 41.7890625 51.203125 C42.5315625 52.193125 42.5315625 52.193125 43.2890625 53.203125 C43.8046875 52.1925 44.3203125 51.181875 44.8515625 50.140625 C45.14160156 49.57214844 45.43164062 49.00367188 45.73046875 48.41796875 C47.1917758 42.6238352 44.62899117 36.99752941 42.26953125 31.7734375 C41.96968826 31.09763641 41.66984528 30.42183533 41.36091614 29.72555542 C40.7291756 28.31009358 40.09276795 26.89670627 39.4519043 25.48535156 C38.47313246 23.32053856 37.52030659 21.14546902 36.56835938 18.96875 C35.94945724 17.59045303 35.32906659 16.21282327 34.70703125 14.8359375 C34.28335518 13.85948776 34.28335518 13.85948776 33.85112 12.86331177 C32.26876184 9.40941962 32.26876184 9.40941962 29.33642578 7.14770508 C26.65645111 7.22024911 25.36300106 8.00207845 23.11328125 9.45703125 Z M-56.7109375 40.203125 C-55.29859555 44.73134646 -53.51443705 48.98553487 -51.48046875 53.26171875 C-51.16695969 53.9279274 -50.85345062 54.59413605 -50.53044128 55.28053284 C-49.53125496 57.40206529 -48.52748889 59.52139137 -47.5234375 61.640625 C-46.54253949 63.71929294 -45.56258847 65.79839182 -44.58467102 67.87846375 C-43.93184169 69.2590259 -43.27280063 70.63666775 -42.60758972 72.01130676 C-40.94572789 75.46404228 -39.41609629 78.90369929 -38.08129883 82.49682617 C-35.51573211 89.69588027 -35.51573211 89.69588027 -30.04272461 94.6574707 C-26.88466534 95.36307979 -24.00700938 95.58702989 -20.7734375 95.640625 C-19.72736328 95.71603516 -18.68128906 95.79144531 -17.60351562 95.86914062 C-11.97791131 96.24040929 -6.3468724 96.26416401 -0.7109375 96.203125 C-2.3259468 90.71954042 -4.78164299 85.82206863 -7.359375 80.74609375 C-7.81317535 79.84369461 -8.26697571 78.94129547 -8.73452759 78.0115509 C-10.18119041 75.13597201 -11.63317749 72.26312774 -13.0859375 69.390625 C-14.53088246 66.5285039 -15.97461046 63.6657857 -17.41592407 60.80183411 C-18.31077141 59.02423197 -19.2077535 57.24770222 -20.10726929 55.47245789 C-22.80651023 50.11659007 -25.32835222 44.70721693 -27.7109375 39.203125 C-37.45038722 39.08035883 -47.00149934 39.36533064 -56.7109375 40.203125 Z M54.2890625 43.203125 C48.39797412 55.36483634 43.28139058 67.79989081 38.2265625 80.328125 C36.67688456 84.16557556 35.12383339 88.00162523 33.56640625 91.8359375 C33.19728119 92.7466803 32.82815613 93.6574231 32.44784546 94.59576416 C29.9334715 100.75363038 27.23718765 106.7742474 24.28735352 112.73779297 C23.03884386 115.37775584 23.03884386 115.37775584 23.2890625 119.203125 C24.25577881 119.42339355 25.22249512 119.64366211 26.21850586 119.87060547 C51.96795222 125.74478769 77.64572622 131.88237407 103.2890625 138.203125 C106.82713947 129.75621471 109.77978488 121.12689476 112.7109375 112.45703125 C113.22077783 110.95389694 113.73072851 109.45080006 114.24078369 107.94773865 C115.30158389 104.81939622 116.36023182 101.69033541 117.41748047 98.56079102 C118.7732066 94.54869762 120.13565229 90.53892144 121.49982834 86.52969456 C122.55127369 83.43645143 123.59855377 80.34181034 124.64463043 77.24674797 C125.14556785 75.76666608 125.64795462 74.2870739 126.15181732 72.80798531 C126.85262195 70.74915975 127.54764493 68.68847064 128.24121094 66.62719727 C128.63773865 65.45600845 129.03426636 64.28481964 129.44281006 63.07814026 C130.43024696 60.2229678 130.43024696 60.2229678 130.2890625 57.203125 C118.30702792 54.77358803 106.30120765 52.47834652 94.2890625 50.203125 C90.66389922 49.51648249 87.03890145 48.82897759 83.4140625 48.140625 C82.11069946 47.89372925 82.11069946 47.89372925 80.78100586 47.6418457 C76.7746772 46.87994786 72.77231142 46.10470495 68.77734375 45.28515625 C68.08817871 45.14408447 67.39901367 45.0030127 66.68896484 44.85766602 C64.86606301 44.48188245 63.04430839 44.10054554 61.22265625 43.71875 C58.12888834 43.08771702 58.12888834 43.08771702 54.2890625 43.203125 Z M135.2890625 63.203125 C134.23932422 66.27855745 133.18992203 69.35410448 132.140625 72.4296875 C131.64770966 73.87432373 131.64770966 73.87432373 131.14483643 75.34814453 C129.33236999 80.66224462 127.52307664 85.97739812 125.71923828 91.29443359 C124.9873259 93.45150459 124.25539234 95.60856841 123.5234375 97.765625 C123.16051605 98.83535553 122.7975946 99.90508606 122.42367554 101.00723267 C120.53959649 106.55243375 118.63930475 112.09116304 116.70291138 117.61831665 C115.73297169 120.39032213 114.77463255 123.1662459 113.81854248 125.9430542 C113.17646834 127.79239298 112.51734718 129.63578499 111.85791016 131.47900391 C111.4819873 132.57647949 111.10606445 133.67395508 110.71875 134.8046875 C110.39116699 135.73619629 110.06358398 136.66770508 109.72607422 137.62744141 C108.94127283 142.25294679 111.3973499 145.60646106 113.828125 149.390625 C114.32280273 150.16623779 114.81748047 150.94185059 115.32714844 151.7409668 C115.85083008 152.553479 116.37451172 153.36599121 116.9140625 154.203125 C117.99539748 155.89674878 119.07612392 157.59076123 120.15625 159.28515625 C120.68702148 160.11611816 121.21779297 160.94708008 121.76464844 161.80322266 C123.88811281 165.14621669 125.97029025 168.51358775 128.0390625 171.890625 C128.67328125 172.92574219 129.3075 173.96085937 129.9609375 175.02734375 C130.39921875 175.74535156 130.8375 176.46335937 131.2890625 177.203125 C133.05044093 174.56105735 133.93828711 172.64218292 134.93383789 169.68530273 C135.24525726 168.76759094 135.55667664 167.84987915 135.87753296 166.90435791 C136.21056427 165.90853699 136.54359558 164.91271606 136.88671875 163.88671875 C137.23747467 162.85021179 137.58823059 161.81370483 137.94961548 160.74578857 C139.08803575 157.3788796 140.2202303 154.00992173 141.3515625 150.640625 C142.88895236 146.07235193 144.42828044 141.50473543 145.96875 136.9375 C146.34454697 135.82211349 146.72034393 134.70672699 147.10752869 133.55754089 C149.17346596 127.44286516 151.28153045 121.34792451 153.484375 115.28125 C153.91741943 114.07927979 154.35046387 112.87730957 154.79663086 111.63891602 C155.55977524 109.53801885 156.33579741 107.44173566 157.12719727 105.35131836 C158.95542696 100.50741796 158.95542696 100.50741796 158.7734375 95.4609375 C156.86127386 92.55243596 154.92313313 89.68714527 152.8515625 86.890625 C148.36544861 80.73943256 144.03423774 74.49718357 139.78149414 68.18237305 C138.64179958 66.50574095 137.46883172 64.85180431 136.2890625 63.203125 C135.9590625 63.203125 135.6290625 63.203125 135.2890625 63.203125 Z M27.2890625 126.203125 C37.07582215 151.2669776 37.07582215 151.2669776 56.36907959 168.68994141 C71.27407448 174.1957186 87.55261501 175.95057795 103.28051758 177.53759766 C108.19687654 178.03468481 112.99273251 178.8245105 117.83329773 179.81259155 C120.35975366 180.21436682 122.73533688 180.27005851 125.2890625 180.203125 C121.94402278 173.11951147 117.90284318 166.57395956 113.7265625 159.953125 C113.05431641 158.87804687 112.38207031 157.80296875 111.68945312 156.6953125 C109.01520053 152.43260278 109.01520053 152.43260278 106.2890625 148.203125 C105.88643692 147.52994232 105.48381134 146.85675964 105.06898499 146.16317749 C102.65395821 143.5037475 100.63262626 143.1518073 97.15625 142.31201172 C95.89063232 141.99843719 94.62501465 141.68486267 93.32104492 141.36178589 C91.93548156 141.03504794 90.54981807 140.7087343 89.1640625 140.3828125 C87.73708115 140.03584842 86.31040855 139.68761231 84.8840332 139.33816528 C81.12350183 138.42093263 77.35864521 137.52280634 73.5927124 136.62805176 C70.54681158 135.90093504 67.50431844 135.16015057 64.46191406 134.41856194 C60.80132148 133.52670823 57.13912294 132.64154537 53.4765625 131.7578125 C52.79068054 131.59203579 52.10479858 131.42625908 51.39813232 131.25545883 C43.40083116 129.32896391 35.4057307 127.55797568 27.2890625 126.203125 Z " fill="#FFFFFF" transform="translate(77.7109375,36.796875)"/>
<path d="M0 0 C2.79750031 2.18341487 3.75038246 3.67510688 4.40625 7.15625 C4.68798756 11.38231346 4.37979323 13.44757348 1.9375 17 C-1.59944442 19.40813237 -3.72563406 20 -8 20 C-11.17613688 18.86138489 -13.23394082 17.94016354 -15.375 15.3125 C-16.31456695 11.8361023 -16.5830986 8.54074333 -16 5 C-11.94657042 -1.56935139 -7.02019927 -1.79940126 0 0 Z " fill="#FFFFFF" transform="translate(174,141)"/>
<path d="M0 0 C5.57894737 3.15789474 5.57894737 3.15789474 7 6 C7.52893101 10.41353907 7.49914819 13.95829942 5.5625 18 C1.90799821 20.85229408 -1.4200987 21.28624383 -6 21 C-8.98636669 19.79274538 -10.39865744 18.80179008 -12.3125 16.25 C-13.5031612 12.35329061 -13.5031612 8.64670939 -12.3125 4.75 C-9.0838819 0.44517586 -5.21277498 -0.74468214 0 0 Z " fill="#FFFFFF" transform="translate(157,116)"/>
<path d="M0 0 C2.8100346 1.79363911 4.50940468 3.01880935 6 6 C6.65753556 10.78122289 6.71680862 13.98803489 3.875 18 C0.68296405 20.22054675 -1.12737883 20.91932039 -5 21 C-8.27401274 20.22047316 -9.83005412 19.15616648 -12.3125 16.875 C-14.50786259 13.13475263 -14.87407936 10.24185572 -14 6 C-10.32759145 0.24655994 -6.71744997 -0.96515086 0 0 Z " fill="#FFFFFF" transform="translate(147,91)"/>
<path d="M0 0 C2.625 0.25 2.625 0.25 4.375 1.5625 C7.37993628 5.61916397 7.08432238 10.43531722 6.625 15.25 C4.73269231 20.54846154 4.73269231 20.54846154 1.75 22.4375 C-0.375 22.25 -0.375 22.25 -3.0625 20.375 C-6.04051368 16.35065719 -6.69679139 13.21236193 -6.375 8.25 C-4.19801955 0.4418968 -4.19801955 0.4418968 0 0 Z " fill="#FFFFFF" transform="translate(212.375,146.75)"/>
<path d="M0 0 C1.875 1.0625 1.875 1.0625 3 3 C3.39302445 6.09506752 3.62908496 8.04448766 3 11 C0.875 13.5625 0.875 13.5625 -2 15 C-5.92828036 14.84286879 -7.70894108 14.19403928 -11 12 C-12.03304439 8.08918909 -12.37920384 5.87216882 -10.75 2.125 C-7.56407624 -1.74362171 -4.52318878 -1.13079719 0 0 Z " fill="#FFFFFF" transform="translate(82,76)"/>
<path d="M0 0 C3.9375 0.5 3.9375 0.5 5.875 1.6875 C7.28903783 4.09968218 7.80652678 5.68407585 7.9375 8.5 C5.66039157 14.13855422 5.66039157 14.13855422 2.9375 15.5 C-0.26621381 15.77858381 -2.43334049 15.78907329 -5.375 14.4375 C-7.91235071 11.52424548 -8.0625 9.3137751 -8.0625 5.5 C-6.08871622 1.46661576 -4.38484397 0.18607271 0 0 Z " fill="#FFFFFF" transform="translate(103.0625,58.5)"/>
<path d="M0 0 C4.99268902 1.47931526 4.99268902 1.47931526 6.375 4 C6.90276637 7.56056467 7.00403915 10.74192169 5.375 14 C2.11692169 15.62903915 -1.06443533 15.52776637 -4.625 15 C-7.57667993 13.38133681 -7.65725355 11.89114428 -8.625 8.625 C-8.625 5 -8.625 5 -6.625 2 C-3.625 0 -3.625 0 0 0 Z " fill="#FFFFFF" transform="translate(91.625,100)"/>
<path d="M0 0 C2 2.125 2 2.125 3 5 C2.67857143 11.32142857 2.67857143 11.32142857 0 14 C-3.51843231 14.45892595 -5.34860502 14.41140736 -8.375 12.5 C-10.80664499 8.75900771 -10.49174842 6.42573582 -10 2 C-7.76708516 -2.33448175 -4.16453532 -1.18986723 0 0 Z " fill="#FFFFFF" transform="translate(51,100)"/>
<path d="M0 0 C3.5625 1.8125 3.5625 1.8125 6 4 C6.875 6.75 6.875 6.75 7 9 C-0.09897309 9.50706951 -5.2025785 8.18023336 -10.73046875 3.55078125 C-12 2 -12 2 -12 -1 C-8.25354387 -2.87322807 -3.87648925 -1.10417611 0 0 Z " fill="#FFFFFF" transform="translate(142,196)"/>
<path d="M0 0 C6.50262736 0.05475897 11.6695164 1.52899604 16.9375 5.4375 C17.288125 5.953125 17.63875 6.46875 18 7 C17.56640625 9.09765625 17.56640625 9.09765625 17 11 C10.45329509 10.8333015 4.89288664 9.63076771 0 5 C-0.78125 2.89453125 -0.78125 2.89453125 -1 1 C-0.67 0.67 -0.34 0.34 0 0 Z " fill="#FFFFFF" transform="translate(158,185)"/>
<path d="M0 0 C0.33 1.65 0.66 3.3 1 5 C-2.72066472 7.48044315 -5.86540474 7.44381173 -10.1875 7.625 C-10.93708984 7.66367188 -11.68667969 7.70234375 -12.45898438 7.7421875 C-14.30559199 7.83628216 -16.1527619 7.91922319 -18 8 C-18.33 6.35 -18.66 4.7 -19 3 C-12.80569519 0.18440691 -6.73382832 -0.13742507 0 0 Z " fill="#FFFFFF" transform="translate(177,57)"/>
<path d="M0 0 C0.73605469 0.08636719 1.47210938 0.17273437 2.23046875 0.26171875 C2.98828125 2.42578125 2.98828125 2.42578125 3.23046875 5.26171875 C1.53515625 7.97265625 1.53515625 7.97265625 -0.89453125 10.63671875 C-2.07402344 11.97863281 -2.07402344 11.97863281 -3.27734375 13.34765625 C-5.76953125 15.26171875 -5.76953125 15.26171875 -8.57421875 15.05078125 C-9.29867187 14.79039063 -10.023125 14.53 -10.76953125 14.26171875 C-11.10787941 11.03307444 -10.97269707 9.57881875 -9.1953125 6.8046875 C-8.49792969 6.02738281 -7.80054688 5.25007813 -7.08203125 4.44921875 C-6.39753906 3.65902344 -5.71304688 2.86882813 -5.0078125 2.0546875 C-2.76953125 0.26171875 -2.76953125 0.26171875 0 0 Z " fill="#FFFFFF" transform="translate(158.76953125,36.73828125)"/>
<path d="M0 0 C1.66611905 -0.042721 3.33382885 -0.04063832 5 0 C6.63837345 1.63837345 6.17085921 3.50016578 6.1875 5.75 C6.15991165 9.6013331 5.84539629 12.53988195 4 16 C2.35 15.67 0.7 15.34 -1 15 C-1.02693575 12.87506859 -1.04636628 10.75004088 -1.0625 8.625 C-1.07410156 7.44164062 -1.08570313 6.25828125 -1.09765625 5.0390625 C-1 2 -1 2 0 0 Z " fill="#FFFFFF" transform="translate(137,28)"/>
<path d="M0 0 C-0.29363907 3.42578919 -0.9936759 4.99181587 -3.125 7.75 C-6.50021694 10.39147413 -8.77519025 10.75148178 -13 11 C-13.33 10.34 -13.66 9.68 -14 9 C-11.34753407 3.07095851 -6.67109021 -0.78483414 0 0 Z " fill="#FFFFFF" transform="translate(55,58)"/>
<path d="M0 0 C-0.30904407 2.88441135 -1.01617865 4.0176954 -3 6.1875 C-6.95005059 8.5739889 -10.45699372 8.80204766 -15 9 C-14.79570164 5.3226295 -14.22067989 4.19915015 -11.4375 1.6875 C-7.16309076 -0.41084636 -4.6959013 -0.32385526 0 0 Z " fill="#FFFFFF" transform="translate(80,46)"/>
</svg>
