<?xml version="1.0" encoding="UTF-8"?>
<svg version="1.1" xmlns="http://www.w3.org/2000/svg" width="256" height="256">
<path d="M0 0 C21.97428891 16.79463509 35.54167051 38.01090894 40.296875 65.3203125 C43.315135 91.32585627 37.72192623 118.03274364 21.4921875 138.984375 C20.91210938 139.67917969 20.33203125 140.37398437 19.734375 141.08984375 C21.38780825 145.37654668 24.61602328 148.23028688 27.82055664 151.38720703 C28.44347092 152.00880707 29.06638519 152.6304071 29.70817566 153.27084351 C31.76573502 155.32191793 33.83017222 157.36592769 35.89453125 159.41015625 C37.32468012 160.83403467 38.75431502 162.25842949 40.18345642 163.68331909 C43.94521098 167.43177258 47.71249228 171.17461797 51.48138428 174.91589355 C57.51904368 180.91042341 63.54998139 186.91169748 69.57772636 192.91619492 C71.68764671 195.01586588 73.80093269 197.11210593 75.91456604 199.20803833 C77.20235398 200.48900081 78.49003387 201.77007192 79.77758789 203.05126953 C80.36929779 203.63624207 80.96100769 204.2212146 81.57064819 204.82391357 C86.63643627 209.87540345 86.63643627 209.87540345 87.046875 214.96484375 C86.98778127 217.91953028 86.80002464 218.98042768 85.234375 221.58984375 C82.402604 223.28890635 80.14924261 223.84965541 76.83728027 223.64405823 C68.04736586 221.32750223 59.15224092 208.63156846 52.828125 202.28125 C51.4945637 200.94582048 50.16077912 199.6106139 48.82678223 198.27561951 C45.33940852 194.78445247 41.8550501 191.29029141 38.37133789 187.79547119 C34.80668717 184.22053743 31.23915583 180.64848081 27.671875 177.07617188 C20.68990622 170.08352201 13.71112353 163.08770174 6.734375 156.08984375 C3.109079 157.47969048 0.328388 158.98754619 -2.765625 161.33984375 C-22.29120942 175.25363057 -47.98815941 179.96697403 -71.53125 176.5546875 C-97.52483479 171.66083357 -120.73358674 158.53787092 -136.2331543 136.78637695 C-141.7210701 128.72427029 -145.99802757 120.27480363 -149.265625 111.08984375 C-149.49008301 110.45981445 -149.71454102 109.82978516 -149.94580078 109.18066406 C-155.75505477 91.87327805 -155.98739766 69.41601478 -150.265625 52.08984375 C-149.91371094 51.01476562 -149.56179687 49.9396875 -149.19921875 48.83203125 C-139.73249516 22.40018916 -121.90389507 2.9637402 -96.765625 -9.22265625 C-65.29192602 -23.09111602 -28.09940341 -19.78349888 0 0 Z M-115.265625 25.08984375 C-115.93207031 25.74597656 -116.59851563 26.40210937 -117.28515625 27.078125 C-132.63329131 43.25776173 -136.80768293 64.24685669 -136.53515625 85.765625 C-136.04480682 102.14522839 -128.99825026 118.67260389 -118.265625 131.08984375 C-117.68425781 131.81300781 -117.10289063 132.53617188 -116.50390625 133.28125 C-103.82938663 148.47524817 -84.73567796 157.74282479 -65.265625 160.08984375 C-49.57558832 161.07390768 -35.56029097 158.8958989 -21.265625 152.08984375 C-20.35167969 151.67089844 -19.43773437 151.25195312 -18.49609375 150.8203125 C-0.41369736 141.84378668 12.5044925 124.56335136 19.734375 106.08984375 C26.69227166 84.43663836 24.99460927 62.23322032 14.71679688 41.89990234 C12.19646309 37.25632513 9.08657072 33.15527261 5.734375 29.08984375 C5.11949219 28.31253906 4.50460938 27.53523438 3.87109375 26.734375 C-9.66373741 10.45334621 -29.8502723 1.49040474 -50.640625 -0.78515625 C-75.84629272 -2.0207282 -97.73736315 7.35197638 -115.265625 25.08984375 Z " fill="#FFFFFF" transform="translate(161.265625,24.91015625)"/>
</svg>
