<svg xmlns="http://www.w3.org/2000/svg" version="1.1" xmlns:xlink="http://www.w3.org/1999/xlink" xmlns:svgjs="http://svgjs.dev/svgjs" width="2000" height="1247" viewBox="0 0 2000 1247"><g transform="matrix(1,0,0,1,-1.2121212121212466,0.504858299595071)"><svg viewBox="0 0 396 247" data-background-color="#f9f9f9" preserveAspectRatio="xMidYMid meet" height="1247" width="2000" xmlns="http://www.w3.org/2000/svg" xmlns:xlink="http://www.w3.org/1999/xlink"><g id="tight-bounds" transform="matrix(1,0,0,1,0.2400000000000091,-0.09999999999999432)"><svg viewBox="0 0 395.52 247.2" height="247.2" width="395.52"><g><svg></svg></g><g><svg viewBox="0 0 395.52 247.2" height="247.2" width="395.52"><mask id="f8776fe4-93d1-444c-ba17-1583ed869e68"><rect width="395.52" height="247.2" fill="white"></rect><g transform="matrix(1,0,0,1,79.97986013986012,37.08)" id="clone"><svg viewBox="0 0 235.56027972027974 173.04" height="173.04" width="235.56027972027974"><g><svg viewBox="0 0 235.56027972027974 173.04" height="173.04" width="235.56027972027974"><g><svg viewBox="0 0 235.56027972027977 173.04000000000002" height="173.04" width="235.56027972027974"><g><svg viewBox="0 0 235.56027972027977 173.04000000000002" height="173.04000000000002" width="235.56027972027977"><g id="SvgjsG1136"><svg viewBox="0 0 235.56027972027977 173.04000000000002" height="173.04000000000002" width="235.56027972027977" id="SvgjsSvg1135"><g><svg viewBox="0 0 235.56027972027977 173.04000000000002" height="173.04000000000002" width="235.56027972027977"><g transform="matrix(1,0,0,1,0,0)"><svg width="235.56027972027977" viewBox="-1.85 -40.1 59.4 43.9" height="173.04000000000002" data-palette-color="#030303"><path d="M11.15 0.6Q9.05 0.6 6.88 0.33 4.7 0.05 4.7 0L4.7 0 4.25-0.4 4.25-31.3Q4.25-34 2.4-34L2.4-34Q2-34 1.7-33.95 1.4-33.9 1.3-33.85L1.3-33.85 1.15-34 1.35-35.65Q3.5-35.95 5.8-36.45 8.1-36.95 8.75-37.1L8.75-37.1 9.05-36.45Q8.7-35.95 8.4-31.38 8.1-26.8 7.9-19.7L7.9-19.7Q10.15-21.3 11.78-22.25 13.4-23.2 13.95-23.2L13.95-23.2Q16.75-23.2 18.95-21.85 21.15-20.5 22.38-18.07 23.6-15.65 23.6-12.5L23.6-12.5Q23.6-8.9 21.93-5.9 20.25-2.9 17.4-1.15 14.55 0.6 11.15 0.6L11.15 0.6ZM12.55-2.15Q15.9-2.15 17.82-4.42 19.75-6.7 19.75-10.65L19.75-10.65Q19.75-13.15 18.88-15.25 18-17.35 16.48-18.57 14.95-19.8 13.15-19.8L13.15-19.8Q12.15-19.8 10.6-19.03 9.05-18.25 7.8-17.1L7.8-17.1 7.65-3.2Q8.55-2.75 9.95-2.45 11.35-2.15 12.55-2.15L12.55-2.15ZM50 0.8Q48.75 0.8 47.32-0.48 45.9-1.75 44.7-3.95L44.7-3.95 39.35-13.65 35.2-13.65 35.05-6.2Q35.05-4.3 35.3-3.48 35.55-2.65 36.25-2.38 36.95-2.1 38.65-2.1L38.65-2.1 38.75-1.9 38.3 0.2Q37.7 0.15 35.9 0.1 34.1 0.05 32.15 0.05L32.15 0.05Q30.4 0.05 29.05 0.1 27.7 0.15 27.25 0.2L27.25 0.2 27.7-2.05Q29.3-2.25 30.1-2.6 30.9-2.95 31.2-3.73 31.5-4.5 31.5-6L31.5-6 31.55-27Q31.55-28.6 31.17-29.15 30.8-29.7 29.7-29.7L29.7-29.7Q29.2-29.7 28.7-29.65 28.2-29.6 28-29.6L28-29.6 27.9-29.8 28.25-32Q28.85-31.95 30.5-31.9 32.15-31.85 33.8-31.85L33.8-31.85Q35.5-31.85 37.37-31.93 39.25-32 39.95-32.05L39.95-32.05Q44.6-32.05 47.3-29.95 50-27.85 50-24.2L50-24.2Q50-21.2 48.07-18.7 46.15-16.2 42.65-14.6L42.65-14.6 48.15-5.9Q49.6-3.5 50.97-2.58 52.35-1.65 54.35-1.65L54.35-1.65 54.55-1.45 54.25 0.25 50 0.8ZM40.45-15.95Q40.45-15.8 41.95-16.6 43.45-17.4 44.65-19.05 45.85-20.7 45.85-23.3L45.85-23.3Q45.85-29.9 36.7-29.9L36.7-29.9Q36.2-29.9 36.02-29.68 35.85-29.45 35.8-28.75L35.8-28.75Q35.35-21.1 35.3-16.45L35.3-16.45 40.45-15.95Z" opacity="1" transform="matrix(1,0,0,1,0,0)" fill="black" class="wordmark-text-0" id="SvgjsPath1134" stroke-width="5" stroke="black" stroke-linejoin="round"></path></svg></g></svg></g></svg></g></svg></g></svg></g></svg></g></svg></g></mask><g mask="url(#f8776fe4-93d1-444c-ba17-1583ed869e68)"><g><path d="M149.304 242.657c-7.824 0-16.278 0.631-25.363 1.893-9.085 1.262-15.016 2.145-17.793 2.65v0l2.272-17.414c11.609-2.271 19.433-5.628 23.47-10.069 4.038-4.391 6.057-11.887 6.057-22.487v0l0.379-158.995c0-8.076-0.934-13.502-2.801-16.278-1.918-2.776-5.653-4.164-11.206-4.165v0c-2.524 0-5.047 0.126-7.571 0.379-2.524 0.252-4.29 0.379-5.3 0.378v0l-0.757-1.514 2.65-16.656c3.028 0.252 8.707 0.505 17.035 0.757 8.328 0.252 16.657 0.379 24.985 0.378v0c8.581 0 17.363-0.202 26.348-0.605 8.934-0.353 15.041-0.656 18.322-0.909v0c23.976 0 42.399 4.972 55.27 14.915 12.871 9.994 19.307 24.203 19.307 42.626v0c0 12.619-3.836 23.976-11.508 34.071-7.723 10.095-18.524 18.171-32.405 24.227v0c18.423 4.038 32.809 11.104 43.156 21.2 10.347 10.095 15.521 22.209 15.521 36.342v0c0 12.871-4.088 24.909-12.266 36.114-8.227 11.256-19.155 20.215-32.783 26.878-13.628 6.713-28.266 10.07-43.913 10.07v0c-6.814 0-14.638-0.631-23.471-1.893v0c-14.385-1.262-23.597-1.893-27.635-1.893zM167.097 109.783c3.786 0.252 10.171 0.757 19.155 1.514 8.934 0.757 16.303 1.262 22.108 1.514v0c0 0.757 3.281-0.58 9.842-4.013 6.562-3.382 12.492-8.682 17.793-15.899 5.3-7.167 7.95-16.808 7.949-28.922v0c0-16.152-5.426-28.14-16.278-35.964-10.852-7.824-27.635-11.735-50.348-11.735v0c-2.524 0-4.215 0.555-5.073 1.666-0.909 1.161-1.489 3.508-1.741 7.041v0c-1.514 24.228-2.65 52.494-3.407 84.798zM166.339 129.846l-1.514 70.791c0 9.59 3.281 16.404 9.843 20.442 6.562 4.038 17.666 6.057 33.313 6.057v0c15.142 0 27.08-4.24 35.812-12.719 8.682-8.429 13.022-19.837 13.022-34.222v0c0-13.628-4.29-24.808-12.871-33.541-8.581-8.682-21.326-14.537-38.234-17.565v0z" fill="#ffffff" fill-rule="nonzero" stroke="none" stroke-width="1" stroke-linecap="butt" stroke-linejoin="miter" stroke-miterlimit="10" stroke-dasharray="" stroke-dashoffset="0" font-family="none" font-weight="none" font-size="none" text-anchor="none" style="mix-blend-mode: normal" data-fill-palette-color="tertiary"></path></g></g><g transform="matrix(1,0,0,1,79.97986013986012,37.08)"><svg viewBox="0 0 235.56027972027974 173.04" height="173.04" width="235.56027972027974"><g><svg viewBox="0 0 235.56027972027974 173.04" height="173.04" width="235.56027972027974"><g><svg viewBox="0 0 235.56027972027977 173.04000000000002" height="173.04" width="235.56027972027974"><g><svg viewBox="0 0 235.56027972027977 173.04000000000002" height="173.04000000000002" width="235.56027972027977"><g id="textblocktransform"><svg viewBox="0 0 235.56027972027977 173.04000000000002" height="173.04000000000002" width="235.56027972027977" id="textblock"><g><svg viewBox="0 0 235.56027972027977 173.04000000000002" height="173.04000000000002" width="235.56027972027977"><g transform="matrix(1,0,0,1,0,0)"><svg width="235.56027972027977" viewBox="-1.85 -40.1 59.4 43.9" height="173.04000000000002" data-palette-color="#030303"><path d="M11.15 0.6Q9.05 0.6 6.88 0.33 4.7 0.05 4.7 0L4.7 0 4.25-0.4 4.25-31.3Q4.25-34 2.4-34L2.4-34Q2-34 1.7-33.95 1.4-33.9 1.3-33.85L1.3-33.85 1.15-34 1.35-35.65Q3.5-35.95 5.8-36.45 8.1-36.95 8.75-37.1L8.75-37.1 9.05-36.45Q8.7-35.95 8.4-31.38 8.1-26.8 7.9-19.7L7.9-19.7Q10.15-21.3 11.78-22.25 13.4-23.2 13.95-23.2L13.95-23.2Q16.75-23.2 18.95-21.85 21.15-20.5 22.38-18.07 23.6-15.65 23.6-12.5L23.6-12.5Q23.6-8.9 21.93-5.9 20.25-2.9 17.4-1.15 14.55 0.6 11.15 0.6L11.15 0.6ZM12.55-2.15Q15.9-2.15 17.82-4.42 19.75-6.7 19.75-10.65L19.75-10.65Q19.75-13.15 18.88-15.25 18-17.35 16.48-18.57 14.95-19.8 13.15-19.8L13.15-19.8Q12.15-19.8 10.6-19.03 9.05-18.25 7.8-17.1L7.8-17.1 7.65-3.2Q8.55-2.75 9.95-2.45 11.35-2.15 12.55-2.15L12.55-2.15ZM50 0.8Q48.75 0.8 47.32-0.48 45.9-1.75 44.7-3.95L44.7-3.95 39.35-13.65 35.2-13.65 35.05-6.2Q35.05-4.3 35.3-3.48 35.55-2.65 36.25-2.38 36.95-2.1 38.65-2.1L38.65-2.1 38.75-1.9 38.3 0.2Q37.7 0.15 35.9 0.1 34.1 0.05 32.15 0.05L32.15 0.05Q30.4 0.05 29.05 0.1 27.7 0.15 27.25 0.2L27.25 0.2 27.7-2.05Q29.3-2.25 30.1-2.6 30.9-2.95 31.2-3.73 31.5-4.5 31.5-6L31.5-6 31.55-27Q31.55-28.6 31.17-29.15 30.8-29.7 29.7-29.7L29.7-29.7Q29.2-29.7 28.7-29.65 28.2-29.6 28-29.6L28-29.6 27.9-29.8 28.25-32Q28.85-31.95 30.5-31.9 32.15-31.85 33.8-31.85L33.8-31.85Q35.5-31.85 37.37-31.93 39.25-32 39.95-32.05L39.95-32.05Q44.6-32.05 47.3-29.95 50-27.85 50-24.2L50-24.2Q50-21.2 48.07-18.7 46.15-16.2 42.65-14.6L42.65-14.6 48.15-5.9Q49.6-3.5 50.97-2.58 52.35-1.65 54.35-1.65L54.35-1.65 54.55-1.45 54.25 0.25 50 0.8ZM40.45-15.95Q40.45-15.8 41.95-16.6 43.45-17.4 44.65-19.05 45.85-20.7 45.85-23.3L45.85-23.3Q45.85-29.9 36.7-29.9L36.7-29.9Q36.2-29.9 36.02-29.68 35.85-29.45 35.8-28.75L35.8-28.75Q35.35-21.1 35.3-16.45L35.3-16.45 40.45-15.95Z" opacity="1" transform="matrix(1,0,0,1,0,0)" fill="#ffffff" class="wordmark-text-0" data-fill-palette-color="primary" id="text-0"></path></svg></g></svg></g></svg></g></svg></g></svg></g></svg></g></svg></g></svg></g><defs></defs></svg><rect width="395.52" height="247.2" fill="none" stroke="none" visibility="hidden"></rect></g></svg></g></svg>